<?xml version="1.0" encoding="utf-8"?>
<!-- Generator: Adobe Illustrator 21.0.0, SVG Export Plug-In . SVG Version: 6.00 Build 0)  -->
<svg version="1.1" id="White" xmlns="http://www.w3.org/2000/svg" xmlns:xlink="http://www.w3.org/1999/xlink" x="0px" y="0px"
	 viewBox="0 0 192.3 53.4" style="enable-background:new 0 0 192.3 53.4;" xml:space="preserve">
<style type="text/css">
	.st01{fill:#FFFFFF;}
</style>
<path class="st01" d="M47.5,13.2L47.5,13.2L47.5,13.2L47.5,13.2z"/>
<path class="st01" d="M48.2,12c0.2-0.3,0.3-0.6,0.4-0.8C48.5,11.5,48.4,11.7,48.2,12L48.2,12z"/>
<path class="st01" d="M48.7,11.1c0.1-0.3,0.3-0.5,0.4-0.8C48.9,10.6,48.8,10.9,48.7,11.1z"/>
<path class="st01" d="M46.8,8.8c-0.1,0.1-0.3,0.3-0.4,0.4C46.5,9,46.6,8.9,46.8,8.8z M47.5,13.2c-0.2,0.3-0.4,0.6-0.6,0.8
	C47.1,13.8,47.3,13.5,47.5,13.2z M46.2,9.3c-0.4,0.4-0.8,0.8-1.2,1.3l0,0C45.5,10.1,45.9,9.7,46.2,9.3z M44.9,10.8
	c0.1-0.1,0.1-0.1,0.2-0.2l0,0c0.4-0.5,0.8-0.9,1.2-1.3l0.1-0.1c0.1-0.1,0.3-0.3,0.4-0.4c0.2-0.2,0.4-0.3,0.5-0.5
	C48,7.7,48.6,7.4,49,7.4c0.3,0,0.5,0.1,0.5,0.2c0.1,0.1,0.1,0.4,0.1,0.7c0,0.6-0.2,1.2-0.6,2.1c-0.1,0.2-0.2,0.5-0.4,0.8
	c0,0,0,0,0,0.1c-0.1,0.3-0.3,0.5-0.4,0.8l0,0c-0.2,0.4-0.4,0.7-0.7,1.1l0,0l0,0c-0.2,0.3-0.4,0.6-0.6,0.8c-0.5,0.8-1.2,1.7-1.8,2.5
	s-1.3,1.7-2.1,2.6l0,0c-0.1,0.1-0.2,0.2-0.3,0.4c-0.2,0.2-0.4,0.4-0.6,0.7L42,20.3l0,0l0,0c-1.1,1.3-2.2,2.6-3.4,3.9
	s-2.5,2.6-3.7,3.8c-0.6,1.4-1.1,2.7-1.5,3.9c-0.4,1.2-0.6,2.3-0.6,3.2s0.2,1.8,0.5,2.5s1,1.1,1.9,1.1c0.5,0,0.9-0.1,1.4-0.3
	s1-0.5,1.4-0.8c0.5-0.3,0.9-0.6,1.3-0.9c0.4-0.3,0.7-0.6,1-0.8c0.2-0.2,0.4-0.3,0.5-0.3s0.2,0.1,0.2,0.3c0,0.3-0.2,0.6-0.5,0.8
	c-1.1,0.9-2.2,1.6-3.2,2.1s-2,0.8-3,0.8c-0.9,0-1.6-0.4-2.1-1.3c-0.5-0.8-0.7-1.8-0.7-2.8c0-0.7,0.1-1.6,0.4-2.6
	c0.3-1,0.6-2.1,1.1-3.3c-1.3,1.2-2.7,2.4-3.9,3.5c-1.3,1.1-2.5,2-3.7,2.8s-2.3,1.4-3.3,1.8c-1,0.4-1.9,0.7-2.6,0.7
	c-0.5,0-0.9-0.2-1.4-0.7s-0.7-1.1-0.7-1.9c0-1.3,0.4-2.7,1.2-4.2c0.8-1.4,1.8-2.9,3-4.5s2.5-3.2,3.9-4.8c1.4-1.7,2.7-3.4,3.9-5.1
	c1.2-1.8,2.2-3.6,3-5.5C33.1,9.9,33.5,8,33.5,6c0-1.2-0.4-2.2-1.1-3c-0.7-0.7-1.9-1.1-3.7-1.1c-1.1,0-2.2,0.1-3.2,0.4
	c-1.1,0.3-2.1,0.7-3,1.2c0.2,0.4,0.3,0.9,0.4,1.4s0.1,1,0.1,1.5c0,0.3,0,0.5,0,0.6c0.5-0.3,1.1-0.4,1.8-0.4c1,0,1.7,0.3,2.1,0.8
	s0.6,1.2,0.6,2.1c0,0.8-0.2,1.7-0.5,2.8c-0.3,1-0.8,2.1-1.4,3.2s-1.3,2.2-2.1,3.2c-0.8,1-1.7,1.9-2.6,2.7C20,22.2,19,22.8,18,23.3
	c-1,0.4-2,0.7-3,0.7c-1.8,0-3.1-0.4-3.8-1.3c-0.8-0.9-1.2-2-1.2-3.3c0-1.2,0.3-2.6,0.9-4c0.6-1.5,1.4-3,2.4-4.5s2.2-2.9,3.6-4.2
	c1.4-1.4,2.9-2.5,4.5-3.4c-0.4-0.7-1-1.3-1.7-1.8C19,1,18,0.8,16.8,0.8c-1.6,0-3.2,0.3-4.9,1S8.6,3.3,7.1,4.4
	c-1.5,1-2.8,2.1-3.9,3.3s-1.9,2.2-2.2,3c-0.2,0.4-0.4,0.7-0.6,0.7S0.1,11.3,0.1,11c0-0.2,0.1-0.4,0.2-0.7c0.6-1,1.5-2.1,2.6-3.3
	s2.5-2.3,4-3.4c1.5-1,3.2-1.9,5-2.6s3.5-1,5.3-1c1.4,0,2.5,0.3,3.3,0.8s1.4,1.2,1.9,2c1.1-0.6,2.3-1,3.5-1.4
	c1.2-0.3,2.4-0.5,3.6-0.5c2,0,3.4,0.4,4.2,1.3s1.2,2,1.2,3.4c0,2.3-0.4,4.4-1.2,6.4s-1.7,3.9-2.9,5.6c-1.2,1.8-2.4,3.5-3.8,5
	c-1.3,1.6-2.6,3.1-3.8,4.6c-1.2,1.5-2.2,2.9-2.9,4.2c-0.8,1.4-1.2,2.7-1.2,4c0,0.5,0.2,1,0.5,1.4s0.8,0.5,1.3,0.5
	c0.6,0,1.4-0.2,2.4-0.7c0.9-0.5,2-1.2,3.1-2c1.1-0.9,2.4-1.8,3.7-3c1.3-1.1,2.6-2.3,3.9-3.6c0.7-1.5,1.5-3,2.4-4.7
	c0.9-1.6,1.9-3.2,2.8-4.7c1-1.5,2-3,3-4.3C43,13,44,11.8,44.9,10.8z M22.5,9.8c-0.2,0.7-0.5,1.3-0.8,1.9c-0.3,0.5-0.6,1-1,1.3
	s-0.8,0.5-1.1,0.5c-0.6,0-0.9-0.3-0.9-1c0-0.4,0.1-0.8,0.3-1.2c0.2-0.5,0.4-0.9,0.7-1.4c0.3-0.5,0.7-1,1.1-1.4s0.9-0.8,1.5-1.2V6.8
	c0-0.5,0-1-0.1-1.5s-0.2-1-0.4-1.4c-1.5,0.8-2.9,1.9-4.2,3.1s-2.4,2.5-3.3,3.9c-0.9,1.4-1.7,2.7-2.2,4.1s-0.8,2.6-0.8,3.8
	c0,1.2,0.3,2.3,1,3c0.7,0.8,1.8,1.2,3.4,1.2c1.2,0,2.4-0.5,3.7-1.4c1.3-1,2.4-2.1,3.4-3.5c1-1.3,1.8-2.8,2.5-4.3
	c0.6-1.5,1-2.8,1-3.9c0-0.7-0.2-1.3-0.5-1.8c-0.4-0.5-0.9-0.7-1.7-0.7c-0.2,0-0.4,0-0.6,0.1c-0.2,0-0.3,0.1-0.5,0.2
	C22.9,8.3,22.8,9.1,22.5,9.8z M21.2,8.8c-0.3,0.4-0.6,0.7-0.8,1.1c-0.2,0.4-0.4,0.8-0.5,1.1c-0.1,0.4-0.2,0.7-0.2,0.9
	c0,0.4,0.1,0.5,0.3,0.5c0.5,0,0.9-0.5,1.4-1.4c0.4-0.9,0.7-2,0.9-3.3C21.9,8.1,21.5,8.4,21.2,8.8z M42.7,14.7
	c-1.1,1.6-2.3,3.4-3.5,5.4C38,22,36.9,24,35.9,26c1.6-1.6,3.1-3.2,4.5-4.9c1.4-1.7,2.7-3.2,3.8-4.7c1.1-1.5,2-2.8,2.6-4
	c0.7-1.2,1-2.1,1-2.7c0-0.3-0.1-0.4-0.3-0.4c-0.3,0-0.8,0.5-1.7,1.5C44.9,11.8,43.9,13.1,42.7,14.7z"/>
<path class="st01" d="M46.7,33.2c-0.5,0.5-0.9,0.9-1.2,1.2c-0.5,0.5-1.1,1-1.7,1.5c-0.6,0.5-1.1,0.7-1.5,0.7c-0.2,0-0.5-0.1-0.7-0.3
	s-0.4-0.5-0.4-1c0.1-0.4,0.1-0.8,0-1c-0.1-0.3-0.2-0.4-0.4-0.5s-0.4,0-0.6,0.1c-0.2,0.1-0.4,0.4-0.6,0.7c-0.1,0.6,0,1.1,0.1,1.5
	s0.3,0.7,0.5,0.9s0.4,0.4,0.7,0.5s0.5,0.1,0.7,0.1c0.7,0,1.4-0.3,2.2-0.8s1.5-1.2,2.3-1.9c0.7-0.7,1.4-1.4,2-2.1
	c0.6-0.7,1-1.1,1.3-1.4c-0.3,0.4-0.6,0.7-0.8,1c-0.2,0.2-0.4,0.5-0.5,0.7c-0.2,0.2-0.2,0.3-0.2,0.4c-0.3,0.4-0.6,0.8-0.9,1.2
	c-0.3,0.4-0.5,0.8-0.6,1.2s-0.2,0.7-0.1,1c0,0.3,0.2,0.5,0.6,0.7c0.3,0.1,0.7,0.1,1.1-0.1c0.4-0.2,0.9-0.6,1.3-1
	c0.5-0.4,1-0.9,1.5-1.5c0.5-0.5,1-1,1.5-1.6c0,0,0,0.1-0.1,0.3s-0.2,0.4-0.3,0.6c-0.1,0.2-0.2,0.4-0.3,0.6c-0.1,0.2-0.1,0.3-0.2,0.3
	c-0.1,0.2-0.1,0.4-0.2,0.6c-0.1,0.2-0.1,0.4-0.1,0.7c0,0.8,0.3,1.3,1,1.3c0.5,0,1.1-0.2,1.7-0.4c0.6-0.3,1.1-0.6,1.7-1
	c0.5-0.4,0.9-0.8,1.3-1.2c0.3-0.4,0.5-0.7,0.5-0.9S57.2,34,57.1,34c-0.1,0-0.2,0.1-0.3,0.2c-0.9,1-1.7,1.7-2.3,2.1
	c-0.6,0.4-1.1,0.5-1.4,0.5c-0.6,0-0.9-0.3-0.9-0.9c0-0.3,0.1-0.6,0.3-0.9c0.2-0.3,0.3-0.6,0.4-0.8c0.6-1.2,1.1-2.1,1.6-2.7
	c0.5-0.6,0.8-1,0.9-1.3c0.2-0.3,0.3-0.5,0.5-0.6c0.1-0.2,0.2-0.3,0.2-0.5c0-0.1-0.1-0.2-0.2-0.3c-0.1-0.1-0.3-0.1-0.4-0.1
	c-0.3,0-0.6,0.2-0.9,0.6c-0.2,0.4-0.5,0.8-1,1.4s-1,1.3-1.7,2.1c-0.3,0.4-0.6,0.8-1,1.3c-0.4,0.4-0.8,0.8-1.2,1.2s-0.8,0.6-1.1,0.8
	s-0.6,0.2-0.8,0c-0.1-0.3,0-0.8,0.3-1.3c0.3-0.6,0.6-1.1,1-1.8c0.4-0.6,0.8-1.2,1.2-1.7c0.2-0.2,0.3-0.5,0.5-0.6c0,0,0,0,0-0.1l0,0
	c0.2-0.2,0.3-0.4,0.4-0.6c0.5-0.5,0.7-0.9,0.7-1.1c0-0.1,0-0.1-0.1-0.2l0,0l0,0c-0.1-0.1-0.1-0.1-0.3-0.1c-0.1,0-0.1,0-0.2,0l0,0
	c-0.1,0-0.1,0-0.2,0c-0.1,0-0.1,0-0.2,0c-0.2,0-0.2,0.1-0.2,0.2s-0.1,0.3-0.2,0.4c-0.2,0.3-0.4,0.7-0.9,1.1
	c-0.3,0.3-0.6,0.6-0.9,0.9l0,0l0,0c-0.2,0.2-0.4,0.4-0.6,0.6C47.7,32.2,47.2,32.7,46.7,33.2z"/>
<path class="st01" d="M67.7,35c0.3-0.4,0.5-0.7,0.5-0.9s-0.1-0.3-0.2-0.3s-0.2,0.1-0.3,0.2c-0.9,1-1.7,1.7-2.3,2.1
	c-0.6,0.4-1.1,0.5-1.4,0.5c-0.4,0-0.6-0.2-0.6-0.6c0-0.5,0.2-1,0.5-1.5c0.4-0.5,0.8-1.1,1.2-1.7c0.5-0.6,0.9-1.2,1.2-1.8
	c0.4-0.6,0.5-1.2,0.5-1.8c0-0.3-0.1-0.5-0.2-0.8c-0.1-0.2-0.3-0.4-0.5-0.5c-0.2-0.2-0.5-0.2-0.9-0.2s-1,0.1-1.7,0.4S62,28.9,61,29.7
	c0.2-0.4,0.3-0.7,0.6-0.9c0.2-0.3,0.4-0.5,0.6-0.8c0-0.4-0.2-0.5-0.5-0.5c-0.1,0-0.2,0.1-0.4,0.3c-0.2,0.2-0.4,0.4-0.5,0.7
	c-0.2,0.3-0.5,0.6-0.7,0.9l-3.7,5.5c0,0-0.1,0.2-0.3,0.4s-0.3,0.5-0.5,0.7c-0.2,0.3-0.3,0.5-0.5,0.7C55,36.9,55,37,55,37.1
	c0,0.4,0.2,0.6,0.5,0.6c0,0,0.1-0.1,0.3-0.3s0.3-0.4,0.5-0.7s0.4-0.5,0.5-0.8c0.2-0.3,0.3-0.4,0.4-0.5c0.1-0.1,0.2-0.3,0.4-0.7
	c0.2-0.3,0.5-0.7,0.8-1.2c0.3-0.4,0.7-0.9,1-1.3c0.3-0.5,0.7-0.8,0.9-1.2c0.6-0.4,1.2-0.8,1.9-1.2c0.7-0.4,1.4-0.6,2.1-0.7
	c0.2,0,0.4,0.1,0.7,0.2c0.3,0.1,0.4,0.3,0.4,0.6c0,0.4-0.2,0.9-0.5,1.5c-0.4,0.5-0.8,1.1-1.2,1.7c-0.4,0.6-0.8,1.2-1.2,1.8
	S62,36.1,62,36.6c0,0.8,0.3,1.3,1,1.3c0.5,0,1.1-0.2,1.7-0.4c0.6-0.3,1.1-0.6,1.6-1l0,0c0,0,0,0,0.1,0l0,0l0,0c0,0,0.1,0,0.1-0.1
	l0,0C67,35.8,67.4,35.4,67.7,35z"/>
<path class="st01" d="M76.7,34.2c0,0.2-0.2,0.5-0.5,0.9s-0.8,0.8-1.3,1.2c-0.6,0.4-1.2,0.8-2,1.1c-0.7,0.3-1.5,0.5-2.3,0.5
	c-1.1,0-1.9-0.3-2.4-0.8s-0.7-1.2-0.7-1.9s0.2-1.5,0.5-2.3s0.8-1.5,1.3-2.2c0.6-0.7,1.2-1.3,1.9-1.7c0.7-0.4,1.4-0.7,2.2-0.7
	c0.5,0,0.8,0.1,1.1,0.4C74.8,29,75,29.4,75,30c0,0.7-0.2,1.3-0.6,1.9s-0.9,1.1-1.5,1.6s-1.3,0.9-2,1.3c-0.7,0.4-1.4,0.7-2,0.9
	c0.2,0.8,0.9,1.3,2,1.3c0.8,0,1.6-0.2,2.5-0.6c0.9-0.4,1.8-1.1,2.7-2.1c0.1-0.1,0.2-0.2,0.3-0.2C76.7,33.9,76.7,34,76.7,34.2z
	 M68.9,35c0.6-0.3,1.3-0.6,1.9-1c0.6-0.3,1.1-0.7,1.6-1.1c0.5-0.4,0.9-0.8,1.2-1.3c0.3-0.4,0.5-0.9,0.5-1.4c0-0.4-0.1-0.7-0.3-0.9
	C73.6,29.1,73.4,29,73,29c-0.5,0-1,0.2-1.5,0.5c-0.5,0.5-1,1-1.4,1.5c-0.4,0.6-0.7,1.1-0.9,1.8c-0.2,0.6-0.3,1.3-0.3,1.8
	C68.9,34.6,68.9,35,68.9,35z"/>
<path class="st01" d="M95.7,33.9c-0.1,0-0.2,0.1-0.3,0.2c-0.9,1-1.7,1.7-2.3,2.1c-0.6,0.4-1.1,0.5-1.4,0.5c-0.6,0-0.9-0.3-0.9-0.9
	c0-0.3,0.1-0.6,0.2-0.9c0.1-0.3,0.2-0.6,0.3-0.8c0.1-0.1,0.2-0.4,0.5-0.8c0.3-0.4,0.6-0.8,0.9-1.3s0.7-0.9,1-1.3s0.5-0.7,0.6-0.8
	c0.2-0.3,0.3-0.5,0.5-0.6c0.1-0.2,0.2-0.3,0.2-0.5c0-0.3-0.1-0.4-0.4-0.4S94,28.6,93.7,29c-0.2,0.4-0.5,0.8-1,1.4s-1,1.2-1.6,1.8
	c-0.7,0.8-1.4,1.5-2,2.1c-0.5,0.5-1.1,1-1.7,1.5s-1.1,0.7-1.5,0.7c-0.5,0-0.7-0.2-0.7-0.6c0-0.3,0.2-0.8,0.5-1.3
	c0.3-0.6,0.7-1.2,1.1-1.8c0.5-0.6,0.9-1.3,1.4-1.9c0.5-0.7,0.9-1.2,1.3-1.7c0.2-0.3,0.3-0.5,0.3-0.7c0-0.3-0.1-0.4-0.4-0.4
	c-0.2,0-0.3,0.1-0.5,0.3c0,0-0.1,0.1-0.3,0.4c-0.3,0.3-0.6,0.6-0.9,1.1c-0.4,0.5-0.8,1-1.2,1.6c-0.4,0.6-0.8,1.2-1.2,1.8
	c-0.4,0.6-0.7,1.2-1,1.8s-0.4,1.1-0.4,1.5c0,0.7,0.4,1.1,1.3,1.1c0.5,0,1.1-0.2,1.6-0.5c0.6-0.3,1.1-0.7,1.6-1.1
	c0.6-0.4,1.2-0.9,1.8-1.5c0,0,0,0,0,0.1c-0.1,0.2-0.1,0.4-0.2,0.6c-0.1,0.2-0.1,0.4-0.2,0.6c-0.1,0.2-0.1,0.4-0.1,0.7
	c0,0.8,0.3,1.3,1,1.3c0.5,0,1.1-0.2,1.7-0.4c0.6-0.3,1.1-0.6,1.7-1c0.5-0.4,0.9-0.8,1.3-1.2c0.3-0.4,0.5-0.7,0.5-0.9
	C95.9,34,95.9,33.9,95.7,33.9z"/>
<path class="st01" d="M106.5,36.2c-0.5,0.4-1.1,0.7-1.7,1s-1.2,0.4-1.7,0.4c-0.6,0-1-0.4-1-1.3c0-0.5,0.1-1.1,0.3-1.6
	c0.2-0.5,0.6-1.2,1.2-2.1h-0.4c-0.1,0.1-0.3,0.3-0.4,0.5c-0.6,0.7-1.2,1.3-2,1.9c-0.7,0.6-1.5,1.2-2.3,1.7s-1.5,0.7-2.2,0.7
	c-0.2,0-0.4,0-0.6-0.1s-0.4-0.2-0.7-0.4c-0.2-0.2-0.4-0.4-0.5-0.8c-0.1-0.3-0.2-0.7-0.2-1.3c0-0.5,0.1-0.9,0.4-1
	c0.3-0.2,0.5-0.3,0.6-0.3c0.5,0,0.7,0.3,0.7,1c0,0.3,0,0.4,0,0.5c0,0.5,0.2,0.8,0.4,1c0.2,0.2,0.5,0.3,0.7,0.3
	c0.4,0,0.9-0.2,1.5-0.6c0.6-0.4,1.3-0.9,1.9-1.5c0.6-0.5,1.2-1.1,1.8-1.8c-0.8-0.1-1.5-0.3-2-0.6c-0.7-0.4-1-1.2-1-2.4
	c0.1-0.8,0.3-1.5,0.8-2s1-0.9,1.7-1.1c0.6-0.2,1.2-0.3,1.9-0.2c0.6,0.1,1.1,0.3,1.4,0.8c0.3,0.4,0.5,1,0.4,1.7s-0.5,1.6-1.3,2.7
	c-0.1,0.2-0.3,0.4-0.5,0.7c0.1,0,0.3,0,0.4,0c0.3-0.4,0.6-0.6,0.9-0.6c0.1,0,0.2,0,0.4,0c0.1,0,0.2,0.1,0.2,0.2
	c0,0.2-0.1,0.4-0.4,0.6c-0.2,0.2-0.5,0.5-0.8,0.8s-0.5,0.6-0.8,1c-0.2,0.4-0.4,0.9-0.4,1.4c0,0.6,0.3,0.9,0.9,0.9
	c0.3,0,0.8-0.2,1.4-0.5c0.6-0.4,1.4-1.1,2.3-2.1c0.1-0.1,0.2-0.2,0.3-0.2c0.1,0,0.2,0.1,0.2,0.3s-0.2,0.5-0.5,0.9
	C107.5,35.4,107.1,35.8,106.5,36.2z M104.1,30.2c0.2-0.3,0.3-0.7,0.5-1c0.1-0.3,0.1-0.6,0.2-0.9c0-0.3-0.1-0.6-0.3-0.9
	c-0.2-0.3-0.6-0.4-1-0.3s-0.9,0.3-1.3,0.7c-0.4,0.3-0.8,0.8-1.1,1.3c-0.3,0.5-0.5,1-0.4,1.5c0,0.5,0.3,0.9,0.8,1.3
	c0.3,0.2,0.8,0.3,1.3,0.5C103.2,31.5,103.7,30.9,104.1,30.2z"/>
<path class="st01" d="M135,28.6c-0.3,0.4-0.7,0.7-1,1l0,0c-0.4,0.4-0.8,0.8-1.2,1.2c-0.5,0.5-0.9,1-1.4,1.4c-1.1,1.1-2.2,2.1-3.2,3
	s-2.1,1.5-3.1,2.1c-1,0.5-2.1,0.8-3.3,0.9c-0.7-0.3-1.1-0.9-1.2-1.7s-0.1-1.7,0.1-2.7c0-0.2,0.1-0.4,0.2-0.6l0,0
	c0.2-0.7,0.4-1.5,0.7-2.2c0.1-0.2,0.2-0.4,0.2-0.6l0,0c0.2-0.7,0.4-1.2,0.6-1.7c-1.3,1.3-2.5,2.6-3.8,3.7c-0.8,0.7-1.5,1.3-2.2,1.9
	c-0.1,0.1-0.2,0.2-0.4,0.3l0,0c-0.3,0.3-0.7,0.5-1,0.8c-1.1,0.9-2.2,1.5-3.2,2s-1.8,0.8-2.6,0.8c-0.5,0-0.9-0.2-1.4-0.6
	c-0.5-0.4-0.7-1-0.8-1.8c-0.1-1.4,0.3-2.8,1-4.3s1.7-3.1,2.8-4.7c1.1-1.6,2.3-3.3,3.7-5.1c1.3-1.8,2.5-3.6,3.7-5.4
	c1.1-1.8,2-3.7,2.7-5.6s1-3.9,0.9-5.8c-0.1-1.2-0.5-2.2-1.2-2.9s-2-1-3.7-0.9c-2.2,0.2-4.3,0.8-6.2,2c0.4,0.8,0.6,1.8,0.6,2.9
	c0,0.3,0,0.5,0,0.6c0.5-0.3,1.1-0.5,1.8-0.5c1-0.1,1.7,0.1,2.1,0.6s0.7,1.2,0.7,2s-0.1,1.8-0.4,2.8c-0.3,1.1-0.7,2.1-1.3,3.3
	c-0.6,1.1-1.2,2.2-2,3.3c-0.8,1.1-1.6,2.1-2.5,2.9c-0.9,0.9-1.8,1.6-2.8,2.1S105,24,104,24c-1.8,0.1-3.1-0.2-3.9-1s-1.2-1.9-1.3-3.2
	c-0.1-1.2,0.2-2.6,0.7-4.1s1.2-3.1,2.2-4.6s2.1-3,3.4-4.5c1.3-1.4,2.8-2.7,4.4-3.7c-0.4-0.7-1-1.3-1.8-1.7s-1.7-0.5-2.9-0.5
	c-1.6,0.1-3.2,0.6-4.9,1.4c-1.7,0.8-3.2,1.8-4.7,2.9s-2.7,2.3-3.8,3.5c-1.1,1.2-1.8,2.3-2.1,3.2c-0.2,0.5-0.4,0.7-0.6,0.7
	s-0.3-0.1-0.3-0.4c0-0.2,0-0.4,0.1-0.7c0.5-1,1.4-2.2,2.5-3.4c1.1-1.3,2.4-2.5,3.9-3.6s3.1-2.1,4.9-2.9c1.7-0.8,3.5-1.3,5.2-1.4
	c1.4-0.1,2.5,0.1,3.3,0.5s1.5,1.1,1.9,1.9c1.1-0.7,2.2-1.2,3.4-1.6c1.2-0.4,2.4-0.6,3.6-0.7c2-0.1,3.4,0.2,4.2,1
	c0.8,0.8,1.3,1.9,1.4,3.3c0.1,2.3-0.2,4.4-0.9,6.5c-0.7,2-1.6,4-2.7,5.8s-2.3,3.6-3.6,5.3c-1.3,1.7-2.5,3.3-3.6,4.8s-2,3-2.7,4.4
	s-1,2.8-1,4.1c0,0.5,0.2,1,0.6,1.3c0.3,0.3,0.8,0.5,1.3,0.5c0.6,0,1.4-0.3,2.3-0.9c0.9-0.5,2-1.3,3.1-2.2s2.3-2,3.5-3.2
	s2.5-2.5,3.7-3.9c0.6-1.5,1.4-3.1,2.2-4.8c0.8-1.7,1.7-3.3,2.6-4.9c0.9-1.6,1.9-3.1,2.8-4.5s1.8-2.7,2.7-3.8
	c0.8-1.1,1.6-1.9,2.3-2.6c0.7-0.6,1.2-1,1.6-1c0.3,0,0.5,0,0.5,0.2c0.1,0.1,0.2,0.4,0.2,0.7c0,0.8-0.3,2-1.1,3.5s-1.8,3.2-3.1,5.1
	s-2.8,3.9-4.4,6c-1.7,2.1-3.4,4.1-5.2,6.1c-0.3,0.7-0.6,1.7-1,2.9c-0.4,1.2-0.8,2.4-1,3.5s-0.3,2.1-0.3,2.8c0.1,0.8,0.5,1.1,1.2,1
	c0.6,0,1.4-0.4,2.4-1s2-1.4,3.2-2.4c1.1-0.9,2.3-2,3.6-3.2c1.2-1.2,2.4-2.4,3.6-3.6c0.6-1.5,1.4-3.1,2.2-4.8s1.7-3.3,2.6-4.9
	c0.9-1.6,1.8-3.1,2.8-4.5c0.9-1.4,1.8-2.7,2.7-3.8c0.8-1.1,1.6-2,2.3-2.6s1.2-1,1.6-1c0.5,0,0.7,0.2,0.7,0.8c0,0.8-0.3,2-1.1,3.5
	s-1.8,3.2-3.1,5.1s-2.8,3.9-4.4,6c-1.7,2.1-3.4,4.1-5.2,6.1c-0.6,1.4-1.1,2.8-1.4,4c-0.3,1.2-0.4,2.3-0.4,3.2s0.2,1.8,0.6,2.5
	c0.3,0.7,1,1,2,1c0.5,0,0.9-0.2,1.4-0.4s1-0.5,1.4-0.8c0.5-0.3,0.9-0.7,1.2-1c0.4-0.3,0.7-0.6,0.9-0.9c0.2-0.2,0.4-0.3,0.5-0.3
	s0.2,0,0.2,0.2c0,0.3-0.1,0.6-0.4,0.9c-1.1,1-2.1,1.7-3.1,2.3s-2,0.9-3,1c-0.9,0.1-1.6-0.3-2.1-1.1s-0.8-1.8-0.9-2.8
	c0-0.7,0.1-1.6,0.3-2.6C134.3,30.9,134.6,29.8,135,28.6z M137.7,24.7c1.5-1.7,2.9-3.5,4.3-5.2c1.4-1.8,2.6-3.4,3.6-5
	s1.8-2.9,2.5-4.1c0.6-1.2,0.9-2.1,0.9-2.7c-0.1-0.3-0.2-0.4-0.4-0.4c-0.3,0-0.8,0.5-1.6,1.6s-1.8,2.4-2.8,4.1
	c-1.1,1.7-2.2,3.5-3.3,5.6C139.6,20.6,138.6,22.7,137.7,24.7z M125.1,24.7c1.5-1.7,3-3.4,4.3-5.2c1.4-1.8,2.6-3.4,3.6-5
	c1-1.5,1.8-2.9,2.4-4.1c0.6-1.2,0.9-2.1,0.8-2.7c0-0.3-0.1-0.4-0.3-0.4c-0.3,0-0.8,0.5-1.6,1.6s-1.8,2.4-2.8,4.1
	c-1.1,1.7-2.2,3.5-3.3,5.6C127,20.7,126,22.7,125.1,24.7z M110.4,11.4c-0.3,0.6-0.6,1-1,1.4c-0.4,0.3-0.7,0.5-1.1,0.6
	c-0.6,0-0.9-0.3-0.9-0.9c0-0.7,0.3-1.6,0.9-2.7s1.4-2,2.5-2.7V6.6c-0.1-1.1-0.3-2.1-0.6-2.9c-1.5,0.9-2.8,2.1-4.1,3.4
	c-1.2,1.3-2.3,2.6-3.1,4c-0.9,1.4-1.5,2.8-2,4.2s-0.7,2.7-0.6,3.8c0.1,1.2,0.5,2.2,1.2,3c0.7,0.7,1.9,1.1,3.4,1
	c1.2-0.1,2.4-0.6,3.6-1.6s2.3-2.2,3.2-3.7c1-1.4,1.7-2.9,2.3-4.4c0.6-1.5,0.8-2.8,0.8-3.9c0-0.7-0.2-1.3-0.6-1.8s-1-0.7-1.7-0.6
	c-0.2,0-0.4,0.1-0.6,0.1s-0.3,0.1-0.5,0.2c-0.1,0.8-0.2,1.5-0.4,2.2C110.9,10.2,110.6,10.8,110.4,11.4z M108.9,9.7
	c-0.4,0.9-0.6,1.6-0.6,2.1c0,0.4,0.2,0.5,0.4,0.5c0.5,0,0.9-0.5,1.3-1.5c0.4-0.9,0.6-2,0.7-3.3C109.9,8.2,109.3,8.9,108.9,9.7z"/>
<path class="st01" d="M155.5,34c0,0.2-0.2,0.5-0.5,0.9s-0.8,0.8-1.3,1.2s-1.1,0.7-1.7,1c-0.6,0.3-1.2,0.4-1.7,0.4c-0.7,0-1-0.4-1-1.3
	c0-0.3,0-0.4-0.1-0.4s-0.1,0-0.1,0.1c-0.4,0.3-0.9,0.6-1.4,0.9c-0.4,0.2-0.9,0.4-1.3,0.6c-0.5,0.2-0.9,0.3-1.4,0.3
	c-0.8,0-1.3-0.2-1.7-0.6c-0.4-0.4-0.5-0.9-0.5-1.6c0-0.7,0.2-1.5,0.6-2.3c0.4-0.8,0.9-1.6,1.6-2.4c0.7-0.7,1.5-1.4,2.4-1.9
	s1.9-0.7,3-0.7c0.5,0,0.9,0.1,1.2,0.2s0.6,0.3,0.8,0.5s0.4,0.4,0.6,0.7c0,0,0.1,0,0.1-0.1c0.1-0.1,0.3-0.3,0.6-0.7
	c0.1-0.1,0.2-0.2,0.3-0.4c0.1-0.2,0.3-0.2,0.4-0.2c0.1,0,0.2,0.1,0.3,0.2s0.1,0.2,0.1,0.3c0,0.1,0,0.2-0.1,0.3
	c0,0.1-0.1,0.1-0.1,0.2c-0.1,0.2-0.4,0.5-0.7,1.1c-0.4,0.5-0.7,1.1-1.1,1.7c-0.4,0.6-0.8,1.2-1.1,1.7s-0.6,0.8-0.6,0.9
	c-0.1,0.1-0.1,0.3-0.2,0.6c-0.1,0.3-0.1,0.6-0.1,0.8c0,0.4,0.2,0.6,0.6,0.6c0.3,0,0.8-0.2,1.4-0.5c0.6-0.4,1.4-1.1,2.3-2.1
	c0.1-0.1,0.2-0.2,0.3-0.2C155.5,33.7,155.5,33.8,155.5,34z M151.4,32.4c0.5-0.7,0.7-1.3,0.8-1.7c0-0.4-0.2-0.8-0.7-1.1
	c-0.5-0.3-1-0.5-1.5-0.5c-0.8,0-1.5,0.2-2.1,0.7c-0.7,0.4-1.3,1-1.8,1.6c-0.5,0.6-0.9,1.3-1.2,2s-0.5,1.3-0.5,1.9
	c0,0.4,0.1,0.8,0.3,1.1s0.5,0.4,1,0.4c0.6,0,1.3-0.2,2-0.7s1.4-1,2-1.6C150.4,33.7,150.9,33,151.4,32.4z"/>
<path class="st01" d="M166.1,33.7c-0.1,0-0.2,0.1-0.3,0.2c-0.9,1-1.7,1.7-2.3,2.1c-0.6,0.4-1.1,0.5-1.4,0.5c-0.4,0-0.6-0.2-0.6-0.6
	c0-0.5,0.2-1,0.5-1.5c0.4-0.5,0.8-1.1,1.2-1.7c0.5-0.6,0.9-1.2,1.2-1.8c0.4-0.6,0.5-1.2,0.5-1.8c0-0.3-0.1-0.5-0.2-0.8
	c-0.1-0.2-0.3-0.4-0.5-0.5c-0.2-0.2-0.5-0.2-0.9-0.2s-1,0.1-1.7,0.4s-1.5,0.8-2.5,1.6c0.2-0.4,0.3-0.7,0.6-0.9
	c0.2-0.3,0.4-0.5,0.6-0.8c0-0.4-0.2-0.5-0.5-0.5c-0.1,0-0.2,0.1-0.4,0.3c-0.2,0.2-0.4,0.4-0.5,0.7c-0.2,0.3-0.5,0.6-0.7,0.9
	l-3.7,5.5c0,0-0.1,0.2-0.3,0.4s-0.3,0.5-0.5,0.7c-0.2,0.3-0.3,0.5-0.5,0.7c-0.1,0.2-0.2,0.4-0.2,0.4c0,0.4,0.2,0.5,0.5,0.5
	c0,0,0.1-0.1,0.3-0.3s0.3-0.4,0.5-0.7s0.4-0.5,0.5-0.8c0.2-0.3,0.3-0.4,0.4-0.5c0.1-0.1,0.2-0.3,0.5-0.7c0.2-0.3,0.5-0.7,0.8-1.2
	c0.3-0.4,0.7-0.9,1-1.3c0.3-0.5,0.7-0.9,0.9-1.2c0.6-0.4,1.2-0.8,1.9-1.2c0.7-0.4,1.4-0.6,2.1-0.7c0.2,0,0.4,0.1,0.7,0.2
	s0.4,0.3,0.4,0.6c0,0.4-0.2,0.9-0.5,1.4c-0.4,0.5-0.8,1.1-1.2,1.7c-0.4,0.6-0.8,1.2-1.2,1.8s-0.5,1.2-0.5,1.7c0,0.8,0.3,1.3,1,1.3
	c0.5,0,1.1-0.1,1.7-0.4c0.6-0.3,1.1-0.6,1.7-1c0.5-0.4,0.9-0.8,1.3-1.2c0.3-0.4,0.5-0.7,0.5-0.9C166.2,33.8,166.2,33.7,166.1,33.7z"
	/>
<path class="st01" d="M179,29.3c0,0,0,0.1,0,0.2s0,0.1-0.1,0.2c-0.2,0.2-0.5,0.4-0.9,0.6s-0.8,0.5-1.3,0.7s-1,0.4-1.5,0.5
	s-1.1,0.2-1.6,0.3c-0.2,0.7-0.6,1.4-1,2.1s-0.9,1.3-1.5,1.8s-1.2,1-1.8,1.3c-0.7,0.3-1.3,0.5-2,0.5c-1,0-1.7-0.2-2.1-0.7
	c-0.4-0.5-0.6-1-0.6-1.7s0.2-1.5,0.5-2.3c0.4-0.8,0.8-1.6,1.4-2.3c0.6-0.7,1.2-1.3,1.9-1.8s1.4-0.7,2-0.7c0.3-0.7,0.8-1,1.6-1
	c0.5,0,0.9,0.2,1.3,0.6c0.4,0.4,0.6,1.1,0.6,2.1c0,0.5-0.1,1-0.2,1.5c0.5,0,1-0.1,1.6-0.3c0.5-0.2,1.1-0.4,1.5-0.6
	c0.5-0.2,0.9-0.4,1.2-0.6s0.5-0.3,0.6-0.4C178.8,29.2,178.9,29.3,179,29.3z M172.8,31.9c-0.6-0.1-1.2-0.3-1.6-0.8
	c-0.4-0.5-0.7-1.2-0.8-2.2c-0.5,0-1.1,0.3-1.6,0.7c-0.5,0.4-1,0.9-1.3,1.5c-0.4,0.6-0.7,1.2-0.9,1.9s-0.4,1.3-0.4,1.9
	c0,0.6,0.1,1.1,0.4,1.4c0.3,0.4,0.7,0.6,1.4,0.6c0.4,0,0.8-0.1,1.3-0.4c0.5-0.3,0.9-0.6,1.4-1s0.9-1,1.3-1.6
	C172.4,33.2,172.6,32.6,172.8,31.9z M173.1,30.2c0-0.8-0.1-1.4-0.4-1.7c-0.2-0.3-0.5-0.5-0.7-0.5c-0.3,0-0.4,0.1-0.4,0.4
	c0,0.8,0.1,1.5,0.4,1.9c0.3,0.4,0.6,0.7,1.1,0.8C173,30.9,173.1,30.6,173.1,30.2z"/>
<path class="st01" d="M185.1,14.1c-0.3,0-0.6-0.1-0.9-0.2c-0.2-0.2-0.4-0.2-0.6-0.2c-0.1,0-0.1,0-0.2,0.1c-0.1,0.1-0.1,0.2-0.1,0.3
	s0.1,0.2,0.3,0.4s0.6,0.2,1.2,0.2c0.4,0,0.7,0,1.2-0.1c0.4-0.1,0.8-0.2,1.2-0.4c0.4-0.1,0.7-0.3,0.9-0.4c0.3-0.1,0.4-0.2,0.5-0.3
	c0.1,0,0.1,0,0.2,0c0.1,0,0.1,0,0.1,0.1c0,0.2-0.1,0.5-0.4,0.8c-1.3,1.9-2.5,3.7-3.6,5.4c-1.2,1.7-2.3,3.4-3.5,5
	c-1.2,1.7-2.4,3.4-3.6,5.3c-1.3,1.8-2.6,3.9-4.1,6.1c-0.2,0.2-0.3,0.4-0.3,0.7s0.2,0.5,0.5,0.5c0.2,0,0.5-0.1,0.7-0.4
	c0.2-0.3,0.5-0.6,0.7-1c0.3-0.5,0.8-1.2,1.3-2s1.1-1.8,1.8-2.8c0.4-0.3,0.8-0.5,1.2-0.7s0.8-0.4,1.2-0.6c0.3-0.2,0.7-0.3,1.1-0.4
	c0.4-0.1,0.7-0.2,1.1-0.2c0.3,0,0.6,0.1,0.8,0.2s0.3,0.4,0.3,0.8c0,0.6-0.2,1-0.7,1.3c-0.5,0.2-1,0.4-1.6,0.7
	c-0.6,0.2-1.1,0.6-1.6,1s-0.7,1.2-0.7,2.2c0,0.5,0.1,0.9,0.3,1.2s0.4,0.5,0.6,0.7c0.2,0.2,0.5,0.3,0.7,0.3c0.2,0.1,0.4,0.1,0.5,0.1
	c0.8,0,1.6-0.2,2.3-0.5s1.4-0.7,2-1.1c0.6-0.4,1-0.8,1.3-1.2s0.5-0.7,0.5-0.9s-0.1-0.3-0.2-0.3c-0.1,0-0.2,0.1-0.3,0.2
	c-0.9,1-1.9,1.7-2.7,2.1c-0.9,0.4-1.7,0.6-2.5,0.6c-0.2,0-0.5-0.1-0.8-0.3s-0.4-0.7-0.4-1.4c0-0.9,0.3-1.5,0.8-1.9s1.1-0.7,1.7-0.9
	c0.6-0.2,1.2-0.5,1.7-0.8s0.8-0.8,0.8-1.6c0-0.7-0.1-1.1-0.4-1.4c-0.3-0.3-0.7-0.4-1.2-0.4c-0.7,0-1.6,0.2-2.5,0.7s-1.7,0.9-2.4,1.3
	c0.8-1.3,1.8-2.6,2.7-4c1-1.4,1.9-2.8,2.9-4.2s1.9-2.7,2.8-3.9c0.7-0.9,1.3-1.8,1.8-2.6l0,0c0-0.1,0.1-0.1,0.1-0.2l0,0
	c0.1-0.2,0.3-0.4,0.4-0.6c0.4-0.5,0.8-1.1,1.2-1.7l0,0l0,0c0.3-0.5,0.7-0.9,1-1.4c0.1,0,0.1-0.1,0.1-0.2c0.1-0.1,0.1-0.3,0.1-0.4
	c0-0.1-0.1-0.2-0.2-0.3c-0.1-0.1-0.2-0.1-0.3-0.1s-0.4,0.2-0.7,0.4c-0.7,0.7-1.3,1.2-2,1.6c-0.6,0.4-1.2,0.7-1.8,1
	c-0.1,0.1-0.2,0.1-0.3,0.1l0,0c-0.4,0.2-0.8,0.3-1.1,0.4C185.6,14,185.3,14.1,185.1,14.1z"/>
<path class="st01" d="M86.2,32.8c-0.1,0-0.2,0.1-0.3,0.2c-0.9,1-1.7,1.7-2.3,2.1c-0.6,0.4-1.1,0.5-1.4,0.5c-0.4,0-0.6-0.2-0.6-0.6
	c0-0.3,0.2-0.7,0.6-1.3c0.4-0.5,0.8-1.1,1.3-1.6c0.5-0.6,0.9-1.2,1.3-1.8c0.4-0.6,0.6-1.3,0.6-1.9c0-0.6-0.1-0.9-0.4-1.2
	c-0.3-0.2-0.6-0.3-1-0.3c-0.3,0-0.6,0-1,0.1c-0.3,0.1-0.6,0.2-0.9,0.3c-0.3,0.1-0.6,0.3-1,0.4c0-0.1,0.2-0.5,0.7-1.1
	c0.4-0.7,0.9-1.4,1.5-2.2c0.5-0.8,1.1-1.5,1.5-2.2c0.5-0.7,0.8-1.1,0.9-1.3c0.1-0.3,0.2-0.5,0.2-0.7c0-0.3-0.1-0.5-0.4-0.5
	c-0.3,0-0.5,0.1-0.7,0.4c-1,1.6-2.1,3.2-3.3,5c-1.1,1.8-2.3,3.6-3.5,5.4c-1.2,1.8-2.4,3.6-3.7,5.4c-1.2,1.8-2.4,3.5-3.6,5.1
	c-0.6-0.2-1.4-0.3-2.2-0.3c-1.1,0-2.4,0.3-3.7,0.8c-1.4,0.5-2.7,1.2-3.9,2.1c-1.2,0.9-2.2,1.9-3,3c-0.8,1.1-1.2,2.3-1.2,3.6
	c0,0.2,0,0.4,0.1,0.7c0.1,0.2,0.2,0.5,0.4,0.7c0.2,0.2,0.4,0.4,0.8,0.5c0.3,0.1,0.8,0.2,1.4,0.2c0.8,0,1.7-0.3,2.7-0.8
	c1-0.6,1.9-1.3,3-2.2c1-0.9,2.1-2,3.1-3.2c1.1-1.2,2.1-2.5,3.1-3.8c0.6,0.4,1,0.9,1.2,1.5c0.2,0.6,0.4,1.2,0.4,1.8
	c-0.6,0.3-1.2,0.6-1.7,1c-0.5,0.4-1,0.8-1.3,1.2c-0.4,0.4-0.6,0.8-0.8,1.2c-0.2,0.4-0.3,0.7-0.3,1c0,0.4,0.2,0.7,0.7,0.7
	c0.5,0,1.1-0.1,1.6-0.4c0.5-0.3,0.9-0.6,1.3-1c0.4-0.4,0.7-0.9,0.9-1.5c0.2-0.6,0.4-1.1,0.4-1.7c0.6-0.2,1.2-0.3,2-0.3
	c0.8,0,1.5,0.2,1.9,0.7c0.4,0.5,0.6,0.8,0.7,1c0.2,0.4,0.3,0.6,0.5,0.6c0.2,0,0.3-0.1,0.4-0.3c0.1-0.1,0.1-0.3,0.1-0.4
	c0-0.6-0.3-1.1-0.9-1.6c-0.6-0.4-1.4-0.6-2.3-0.6c-0.4,0-0.8,0-1.2,0.1c-0.4,0.1-0.8,0.2-1.1,0.3v-0.1c0-0.7-0.1-1.4-0.4-2
	c-0.3-0.6-0.8-1.1-1.5-1.5c0.9-1.2,1.8-2.5,2.7-3.8c0.9-1.3,1.7-2.4,2.4-3.6s1.4-2.1,2-3c0.6-0.9,1.1-1.6,1.5-2.1
	c0.3-0.2,0.6-0.4,1-0.6c0.3-0.2,0.6-0.3,1-0.5c0.4-0.1,0.7-0.2,1.1-0.1c0.7,0,1,0.3,1,0.9c0,0.4-0.2,0.9-0.6,1.5
	c-0.4,0.5-0.9,1.1-1.4,1.7c-0.5,0.6-1,1.2-1.4,1.7c-0.4,0.6-0.6,1.1-0.6,1.6c0,0.8,0.3,1.3,1,1.3c0.5,0,1.1-0.2,1.7-0.4
	c0.6-0.3,1.1-0.6,1.7-1c0.5-0.4,0.9-0.8,1.3-1.2c0.3-0.4,0.5-0.7,0.5-0.9C86.4,32.9,86.3,32.8,86.2,32.8z M67.3,45.6
	c-1,1.2-2,2.2-2.9,3.1c-0.9,0.9-1.8,1.6-2.6,2.1c-0.8,0.5-1.5,0.7-2.2,0.7c-0.6,0-1.1-0.2-1.3-0.5c-0.2-0.4-0.3-0.8-0.3-1.2
	c0-1.1,0.3-2.1,1-3.1c0.6-1,1.5-1.9,2.5-2.6c1-0.8,2.2-1.4,3.4-1.9c1.3-0.5,2.5-0.7,3.7-0.7c0.7,0,1.3,0.1,1.7,0.2
	C69.3,43.1,68.3,44.4,67.3,45.6z M72,48.4c-0.5,0.7-1.1,1-1.7,1c-0.2,0-0.3-0.1-0.3-0.3c0-0.4,0.2-0.9,0.8-1.5
	c0.5-0.6,1.2-1.2,2.1-1.6C72.7,46.9,72.4,47.7,72,48.4z"/>
</svg>
